<svg width="44" height="20" viewBox="0 0 44 20" fill="none" xmlns="http://www.w3.org/2000/svg">
<path d="M3.14286 0H18.8571C19.6907 0 20.4901 0.210714 21.0795 0.585786C21.6689 0.960859 22 1.46957 22 2C22 2.53043 21.6689 3.03914 21.0795 3.41421C20.4901 3.78929 19.6907 4 18.8571 4H3.14286C2.30932 4 1.50992 3.78929 0.920522 3.41421C0.331122 3.03914 0 2.53043 0 2C0 1.46957 0.331122 0.960859 0.920522 0.585786C1.50992 0.210714 2.30932 0 3.14286 0ZM25.1429 16H40.8571C41.6907 16 42.4901 16.2107 43.0795 16.5858C43.6689 16.9609 44 17.4696 44 18C44 18.5304 43.6689 19.0391 43.0795 19.4142C42.4901 19.7893 41.6907 20 40.8571 20H25.1429C24.3093 20 23.5099 19.7893 22.9205 19.4142C22.3311 19.0391 22 18.5304 22 18C22 17.4696 22.3311 16.9609 22.9205 16.5858C23.5099 16.2107 24.3093 16 25.1429 16ZM3.14286 8H40.8571C41.6907 8 42.4901 8.21071 43.0795 8.58579C43.6689 8.96086 44 9.46957 44 10C44 10.5304 43.6689 11.0391 43.0795 11.4142C42.4901 11.7893 41.6907 12 40.8571 12H3.14286C2.30932 12 1.50992 11.7893 0.920522 11.4142C0.331122 11.0391 0 10.5304 0 10C0 9.46957 0.331122 8.96086 0.920522 8.58579C1.50992 8.21071 2.30932 8 3.14286 8Z" fill="#69B7CE"/>
</svg>
