<svg width="176" height="176" viewBox="0 0 176 176" fill="none" xmlns="http://www.w3.org/2000/svg">
<g filter="url(#filter0_d_15_389)">
<path d="M43.7733 47.4045C46.869 47.4045 49.8952 46.4865 52.4692 44.7666C55.0431 43.0467 57.0493 40.6022 58.234 37.7421C59.4187 34.8821 59.7286 31.7349 59.1247 28.6987C58.5208 25.6625 57.03 22.8735 54.841 20.6845C52.652 18.4955 49.8631 17.0048 46.8269 16.4009C43.7906 15.7969 40.6435 16.1069 37.7834 17.2916C34.9234 18.4762 32.4788 20.4824 30.759 23.0564C29.0391 25.6304 28.1211 28.6566 28.1211 31.7523C28.1211 35.9035 29.7702 39.8847 32.7055 42.82C35.6409 45.7554 39.6221 47.4045 43.7733 47.4045Z" stroke="#7DC5DE" stroke-width="4" stroke-linecap="round" stroke-linejoin="round"/>
<path d="M87.5996 97.4907H156.469" stroke="#7DC5DE" stroke-width="2" stroke-linecap="round" stroke-linejoin="round"/>
<path d="M159.599 50.5347L148.574 80.8435C148.136 82.0514 147.336 83.0952 146.285 83.8333C145.233 84.5714 143.98 84.9681 142.695 84.9695H112.643" stroke="#7DC5DE" stroke-width="4" stroke-linecap="round" stroke-linejoin="round"/>
<path d="M115.773 97.4907V160.099" stroke="#7DC5DE" stroke-width="3" stroke-linecap="round" stroke-linejoin="round"/>
<path d="M24.9909 125.665L15.5996 160.099" stroke="#7DC5DE" stroke-width="3" stroke-linecap="round" stroke-linejoin="round"/>
<path d="M15.5996 66.186L24.9909 125.664H43.7735" stroke="#7DC5DE" stroke-width="3" stroke-linecap="round" stroke-linejoin="round"/>
<path d="M89.9784 160.098C88.1385 160.1 86.3388 159.56 84.8027 158.547C83.2667 157.534 82.0621 156.093 81.3384 154.401L71.321 131.355C70.5972 129.666 69.394 128.227 67.8606 127.216C66.3271 126.204 64.5306 125.665 62.6935 125.664H43.7731C41.2824 125.664 38.8937 124.674 37.1325 122.913C35.3713 121.152 34.3818 118.763 34.3818 116.272V66.1854C34.3819 64.2665 34.9698 62.3936 36.0664 60.8189C37.163 59.2442 38.7157 58.0432 40.5155 57.3775C42.3153 56.7119 44.2758 56.6136 46.1332 57.0958C47.9906 57.578 49.6556 58.6177 50.9043 60.0748L62.1738 73.2226C63.6445 74.9384 65.4693 76.3154 67.5228 77.2589C69.5763 78.2024 71.8097 78.6901 74.0695 78.6884H90.7297C93.2204 78.6884 95.6091 79.6778 97.3703 81.439C99.1315 83.2002 100.121 85.589 100.121 88.0797C100.121 90.5704 99.1315 92.9591 97.3703 94.7203C95.6091 96.4816 93.2204 97.471 90.7297 97.471H74.0758C66.5188 97.4839 59.1687 95.0038 53.1645 90.415V106.881H62.6935C68.209 106.883 73.6027 108.503 78.2058 111.541C82.8089 114.58 86.419 118.902 88.5885 123.973L98.6059 147.02C99.2154 148.447 99.4615 150.003 99.3223 151.549C99.1831 153.095 98.6629 154.583 97.8082 155.878C96.9535 157.174 95.791 158.238 94.4246 158.974C93.0582 159.711 91.5306 160.097 89.9784 160.098Z" stroke="#7DC5DE" stroke-width="3" stroke-linecap="round" stroke-linejoin="round"/>
<path d="M118.904 53.3452C119.214 53.3452 119.516 53.437 119.774 53.609C120.031 53.781 120.232 54.0254 120.35 54.3115C120.469 54.5975 120.5 54.9122 120.439 55.2158C120.379 55.5194 120.23 55.7983 120.011 56.0172C119.792 56.2361 119.513 56.3852 119.209 56.4456C118.906 56.506 118.591 56.475 118.305 56.3565C118.019 56.238 117.775 56.0374 117.603 55.78C117.431 55.5226 117.339 55.22 117.339 54.9104C117.339 54.4953 117.504 54.0972 117.797 53.8037C118.091 53.5101 118.489 53.3452 118.904 53.3452Z" stroke="#7DC5DE" stroke-width="3" stroke-linecap="round" stroke-linejoin="round"/>
<path d="M143.947 24.9585C136.86 19.2251 128.02 16.0972 118.904 16.0972C109.788 16.0972 100.948 19.2251 93.8604 24.9585" stroke="#7DC5DE" stroke-width="3" stroke-linecap="round" stroke-linejoin="round"/>
<path d="M104.297 40.0782C108.431 36.7359 113.587 34.9126 118.903 34.9126C124.22 34.9126 129.376 36.7359 133.51 40.0782" stroke="#7DC5DE" stroke-width="3" stroke-linecap="round" stroke-linejoin="round"/>
</g>
<defs>
<filter id="filter0_d_15_389" x="-0.000391006" y="9.72748e-05" width="175.7" height="175.7" filterUnits="userSpaceOnUse" color-interpolation-filters="sRGB">
<feFlood flood-opacity="0" result="BackgroundImageFix"/>
<feColorMatrix in="SourceAlpha" type="matrix" values="0 0 0 0 0 0 0 0 0 0 0 0 0 0 0 0 0 0 127 0" result="hardAlpha"/>
<feOffset/>
<feGaussianBlur stdDeviation="7.05"/>
<feComposite in2="hardAlpha" operator="out"/>
<feColorMatrix type="matrix" values="0 0 0 0 0 0 0 0 0 0.696203 0 0 0 0 1 0 0 0 0.87 0"/>
<feBlend mode="normal" in2="BackgroundImageFix" result="effect1_dropShadow_15_389"/>
<feBlend mode="normal" in="SourceGraphic" in2="effect1_dropShadow_15_389" result="shape"/>
</filter>
</defs>
</svg>
