<svg width="80" height="64" viewBox="0 0 80 64" fill="none" xmlns="http://www.w3.org/2000/svg">
<g clip-path="url(#clip0_18_1442)">
<path d="M12.4863 16.561C17.8393 7.11811 28.0349 0.736328 39.7357 0.736328C51.4495 0.736328 61.645 7.11811 66.985 16.561" stroke="#FAF8F6" stroke-width="2" stroke-miterlimit="10" stroke-linecap="round"/>
<path d="M12.4863 46.8096C17.8393 56.2526 28.0348 62.6342 39.7356 62.6342C51.4362 62.6342 61.6449 56.2526 66.9849 46.8096" stroke="#FAF8F6" stroke-width="2" stroke-miterlimit="10" stroke-linecap="round"/>
<path d="M25.8491 42.8018H26.6866L29.0165 47.0693L31.2806 42.8018H32.1183V49.4429H31.2284V44.501L29.4614 47.7698C29.3829 47.9125 29.3175 48.0032 29.2521 48.0681C29.1866 48.1199 29.108 48.1588 29.0165 48.1588H28.7546L26.739 44.501V49.456H25.8359V42.8018H25.8491Z" fill="#FAF8F6"/>
<path d="M33.7404 49.2618C33.6094 49.1323 33.5439 48.9637 33.5439 48.7431V42.8154H38.2426V43.6064H34.4471V45.6819H37.9546V46.4601H34.4471V48.6783H38.2426V49.4695H34.2639C34.0544 49.4565 33.8713 49.3916 33.7404 49.2618Z" fill="#FAF8F6"/>
<path d="M39.5781 49.2618C39.4473 49.1323 39.3818 48.9637 39.3818 48.7431V42.8154H42.3005C42.7847 42.8154 43.2166 42.9061 43.583 43.0877C43.9496 43.2692 44.2376 43.5287 44.4337 43.8659C44.6302 44.2031 44.7348 44.5924 44.7348 45.0334V47.0439C44.7348 47.8351 44.5385 48.4318 44.1327 48.8469C43.7271 49.2491 43.1381 49.4565 42.3527 49.4565H40.1148C39.8791 49.4565 39.709 49.3916 39.5781 49.2618ZM42.3135 48.6522C42.811 48.6522 43.1904 48.5226 43.4391 48.2502C43.7009 47.9778 43.8185 47.5756 43.8185 47.0309V45.0593C43.8185 44.6312 43.6747 44.2811 43.3867 44.0216C43.0989 43.7623 42.7323 43.6325 42.2613 43.6325H40.2849V48.6522H42.3135Z" fill="#FAF8F6"/>
<path d="M46.0176 42.8018H46.9337V49.4429H46.0176V42.8018Z" fill="#FAF8F6"/>
<path d="M52.2741 47.7053H49.4865L48.832 49.4565H47.8896L50.4811 42.8154H50.8867C51.1617 42.8154 51.358 42.9579 51.4759 43.2563L53.884 49.4565H52.9417L52.2741 47.7053ZM49.7481 46.953H52.0124L50.8867 43.9568H50.8737L49.7481 46.953Z" fill="#FAF8F6"/>
<path d="M0 24.9668H2.26423V30.674H8.97835V24.9668H11.2295V38.4178H8.97835V32.6327H2.26423V38.4178H0V24.9668Z" fill="#FAF8F6"/>
<path d="M14.0566 24.9668H16.3209V38.4178H14.0566V24.9668Z" fill="#FAF8F6"/>
<path d="M35.2062 26.8986H30.9004V24.9531H41.7765V26.8986H37.4705V38.4041H35.2062V26.8986Z" fill="#FAF8F6"/>
<path d="M43.8967 37.9636C43.5956 37.6653 43.4385 37.2633 43.4385 36.7834V24.9668H53.3855V26.9123H45.7027V30.5572H52.7965V32.5159H45.7027V36.4721H53.3855V38.4178H45.1006C44.6163 38.4178 44.2107 38.262 43.8967 37.9636Z" fill="#FAF8F6"/>
<path d="M57.2338 37.9383C56.5138 37.5232 55.9511 36.9265 55.5455 36.1741C55.1397 35.4088 54.9434 34.5268 54.9434 33.5281V29.8443C54.9434 28.8455 55.1529 27.9634 55.5585 27.1981C55.9641 26.4328 56.5401 25.8492 57.2731 25.4341C58.0059 25.019 58.8566 24.8115 59.8383 24.8115H61.8931C62.8094 24.8115 63.6206 25.006 64.3406 25.3953C65.0472 25.7843 65.5969 26.3421 65.9896 27.0424C66.3822 27.7559 66.5655 28.573 66.5655 29.5069H64.3406C64.3406 28.6898 64.1181 28.0283 63.6601 27.5223C63.202 27.0165 62.6261 26.77 61.8931 26.77H59.8253C59.0399 26.77 58.3985 27.0554 57.9274 27.6391C57.4432 28.2099 57.2076 28.9752 57.2076 29.9091V33.4502C57.2076 34.397 57.4432 35.1623 57.9012 35.7331C58.3725 36.3039 58.9744 36.5891 59.7467 36.5891H61.8406C62.5869 36.5891 63.202 36.3039 63.6601 35.746C64.1311 35.1884 64.3536 34.4488 64.3536 33.554H66.5787C66.5787 34.5527 66.3822 35.4347 65.9896 36.1871C65.5969 36.9394 65.0342 37.5232 64.3274 37.9511C63.6076 38.3662 62.7832 38.5736 61.8406 38.5736H59.7467C58.7911 38.5607 57.9536 38.3532 57.2338 37.9383Z" fill="#FAF8F6"/>
<path d="M68.4893 24.9668H70.7535V30.674H77.4679V24.9668H79.7188V38.4178H77.4679V32.6327H70.7535V38.4178H68.4893V24.9668Z" fill="#FAF8F6"/>
<path d="M23.6104 33.6571C24.7091 33.6571 25.5997 32.7745 25.5997 31.6855C25.5997 30.5965 24.7091 29.7139 23.6104 29.7139C22.5118 29.7139 21.6211 30.5965 21.6211 31.6855C21.6211 32.7745 22.5118 33.6571 23.6104 33.6571Z" fill="#FAF8F6"/>
</g>
<defs>
<clipPath id="clip0_18_1442">
<rect width="80" height="64" fill="white"/>
</clipPath>
</defs>
</svg>
