<svg width="101" height="92" viewBox="0 0 101 92" fill="none" xmlns="http://www.w3.org/2000/svg">
<g filter="url(#filter0_d_15_430)">
<path d="M77.0996 45.774V41.0924C77.0996 33.9336 74.255 27.068 69.1915 22.006C64.128 16.9439 57.2605 14.1001 50.0996 14.1001C42.9388 14.1001 36.0712 16.9439 31.0077 22.006C25.9442 27.068 23.0996 33.9336 23.0996 41.0924V45.774C20.4104 47.0717 18.1405 49.0994 16.549 51.6253C14.9576 54.1513 14.1088 57.0737 14.0996 60.059V61.1507C14.1044 65.3792 15.7868 69.4333 18.7777 72.4234C21.7686 75.4134 25.8238 77.0953 30.0536 77.1001H30.5996C32.5887 77.1001 34.4964 76.3102 35.9029 74.904C37.3094 73.4979 38.0996 71.5908 38.0996 69.6022V51.6074C38.0993 49.8794 37.5019 48.2046 36.4086 46.8662C35.3153 45.5278 33.7932 44.6081 32.0996 44.2625V41.0924C32.0996 36.3199 33.996 31.7428 37.3717 28.3681C40.7473 24.9934 45.3257 23.0975 50.0996 23.0975C54.8735 23.0975 59.4519 24.9934 62.8275 28.3681C66.2032 31.7428 68.0996 36.3199 68.0996 41.0924V44.2625C66.4061 44.6081 64.8839 45.5278 63.7906 46.8662C62.6973 48.2046 62.0999 49.8794 62.0996 51.6074V68.1027H57.5996C56.4061 68.1027 55.2615 68.5766 54.4176 69.4203C53.5737 70.264 53.0996 71.4083 53.0996 72.6014C53.0996 73.7945 53.5737 74.9388 54.4176 75.7825C55.2615 76.6261 56.4061 77.1001 57.5996 77.1001H70.1456C74.3754 77.0953 78.4306 75.4134 81.4215 72.4234C84.4125 69.4333 86.0948 65.3792 86.0996 61.1507V60.059C86.0904 57.0737 85.2416 54.1513 83.6502 51.6253C82.0587 49.0994 79.7888 47.0717 77.0996 45.774ZM29.0996 68.0367C27.4352 67.8043 25.911 66.978 24.8083 65.7102C23.7056 64.4425 23.0987 62.8187 23.0996 61.1387V60.047C23.0987 58.3669 23.7056 56.7432 24.8083 55.4754C25.911 54.2076 27.4352 53.3813 29.0996 53.1489V68.0367ZM77.0996 61.1387C77.1006 62.8187 76.4937 64.4425 75.3909 65.7102C74.2882 66.978 72.764 67.8043 71.0996 68.0367V53.1729C72.764 53.4053 74.2882 54.2316 75.3909 55.4994C76.4937 56.7672 77.1006 58.3909 77.0996 60.071V61.1387Z" fill="#7DC5DE"/>
</g>
<defs>
<filter id="filter0_d_15_430" x="-0.000391006" y="9.72748e-05" width="100.2" height="91.2" filterUnits="userSpaceOnUse" color-interpolation-filters="sRGB">
<feFlood flood-opacity="0" result="BackgroundImageFix"/>
<feColorMatrix in="SourceAlpha" type="matrix" values="0 0 0 0 0 0 0 0 0 0 0 0 0 0 0 0 0 0 127 0" result="hardAlpha"/>
<feOffset/>
<feGaussianBlur stdDeviation="7.05"/>
<feComposite in2="hardAlpha" operator="out"/>
<feColorMatrix type="matrix" values="0 0 0 0 0 0 0 0 0 0.696203 0 0 0 0 1 0 0 0 0.87 0"/>
<feBlend mode="normal" in2="BackgroundImageFix" result="effect1_dropShadow_15_430"/>
<feBlend mode="normal" in="SourceGraphic" in2="effect1_dropShadow_15_430" result="shape"/>
</filter>
</defs>
</svg>
