<svg width="208" height="208" viewBox="0 0 208 208" fill="none" xmlns="http://www.w3.org/2000/svg">
<g filter="url(#filter0_d_15_405)">
<path d="M30.9893 146.815C35.1006 145.112 39.6247 144.666 43.9893 145.535C48.3538 146.403 52.3631 148.545 55.5098 151.692C58.6564 154.839 60.7988 158.848 61.667 163.212C62.5352 167.577 62.0897 172.101 60.3867 176.212C58.6837 180.324 55.7997 183.838 52.0996 186.31C48.3995 188.782 44.0496 190.102 39.5996 190.102C33.6322 190.102 27.909 187.732 23.6895 183.512C19.4699 179.293 17.0996 173.569 17.0996 167.602C17.0996 163.152 18.4194 158.802 20.8916 155.102C23.3639 151.402 26.8779 148.518 30.9893 146.815Z" stroke="#7DC5DE" stroke-width="3"/>
<path d="M39.5997 191.602C44.3465 191.602 48.9866 190.195 52.9334 187.557C56.8802 184.92 59.9564 181.172 61.7729 176.787C63.5894 172.401 64.0647 167.576 63.1386 162.92C62.2126 158.264 59.9268 153.988 56.5703 150.632C53.2138 147.275 48.9374 144.989 44.2819 144.063C39.6263 143.137 34.8007 143.612 30.4153 145.429C26.0298 147.245 22.2815 150.322 19.6444 154.268C17.0072 158.215 15.5996 162.855 15.5996 167.602C15.5996 173.967 18.1282 180.072 22.6291 184.573C27.13 189.074 33.2345 191.602 39.5997 191.602Z" stroke="#7DC5DE" stroke-width="3" stroke-linecap="round" stroke-linejoin="round"/>
<path d="M126.1 145.102V190.102H81.0996V145.102H126.1Z" stroke="#7DC5DE" stroke-width="3"/>
<path d="M79.5996 143.602H127.6V191.602H79.5996V143.602Z" stroke="#7DC5DE" stroke-width="3" stroke-linecap="round" stroke-linejoin="round"/>
<path d="M189.172 190.102H146.027L167.6 146.957L189.172 190.102Z" stroke="#7DC5DE" stroke-width="3"/>
<path d="M167.6 143.602L143.6 191.602H191.6L167.6 143.602Z" stroke="#7DC5DE" stroke-width="3" stroke-linecap="round" stroke-linejoin="round"/>
<path d="M115.6 103.601H91.5996" stroke="#7DC5DE" stroke-width="3" stroke-linecap="round" stroke-linejoin="round"/>
<path d="M93.0996 78.7231L92.335 78.2935C88.9967 76.4175 86.2045 73.704 84.2344 70.4204C82.2687 67.1443 81.1892 63.4135 81.1006 59.5942C81.2811 53.6867 83.7086 48.0702 87.8887 43.8901C92.0703 39.7085 97.6896 37.2799 103.6 37.1011C109.509 37.2818 115.127 39.7108 119.309 43.8921C123.491 48.0745 125.919 53.6948 126.099 59.606C126.006 63.4208 124.926 67.1469 122.963 70.4194C120.993 73.7028 118.202 76.4163 114.864 78.2935L114.1 78.7241V86.1011H93.0996V78.7231Z" stroke="#7DC5DE" stroke-width="3"/>
<path d="M127.6 59.6012C127.419 53.2932 124.832 47.2934 120.37 42.8312C115.907 38.369 109.908 35.7823 103.6 35.6011C97.2911 35.7804 91.2903 38.3665 86.8276 42.8291C82.365 47.2917 79.7789 53.2926 79.5996 59.6012C79.6897 63.6901 80.8437 67.6851 82.948 71.1922C85.0522 74.6993 88.0341 77.5975 91.5996 79.6012V87.6012H115.6V79.6012C119.164 77.5963 122.145 74.6978 124.249 71.1909C126.353 67.6841 127.508 63.6898 127.6 59.6012Z" stroke="#7DC5DE" stroke-width="3" stroke-linecap="round" stroke-linejoin="round"/>
<path d="M39.5996 143.601V123.601C39.5996 122.54 40.021 121.523 40.7712 120.773C41.5213 120.022 42.5388 119.601 43.5996 119.601H163.6C164.661 119.601 165.678 120.022 166.428 120.773C167.179 121.523 167.6 122.54 167.6 123.601V143.601" stroke="#7DC5DE" stroke-width="3" stroke-linecap="round" stroke-linejoin="round"/>
<path d="M103.6 103.601V139.601" stroke="#7DC5DE" stroke-width="3" stroke-linecap="round" stroke-linejoin="round"/>
<path d="M103.6 15.6001V23.6001" stroke="#7DC5DE" stroke-width="3" stroke-linecap="round" stroke-linejoin="round"/>
<path d="M134.712 28.4888L129.056 34.1448" stroke="#7DC5DE" stroke-width="3" stroke-linecap="round" stroke-linejoin="round"/>
<path d="M147.6 55.6011H139.6" stroke="#7DC5DE" stroke-width="3" stroke-linecap="round" stroke-linejoin="round"/>
<path d="M72.4873 28.4888L78.1433 34.1448" stroke="#7DC5DE" stroke-width="3" stroke-linecap="round" stroke-linejoin="round"/>
<path d="M59.5996 55.6011H67.5996" stroke="#7DC5DE" stroke-width="3" stroke-linecap="round" stroke-linejoin="round"/>
</g>
<defs>
<filter id="filter0_d_15_405" x="-0.000391006" y="9.72748e-05" width="207.2" height="207.202" filterUnits="userSpaceOnUse" color-interpolation-filters="sRGB">
<feFlood flood-opacity="0" result="BackgroundImageFix"/>
<feColorMatrix in="SourceAlpha" type="matrix" values="0 0 0 0 0 0 0 0 0 0 0 0 0 0 0 0 0 0 127 0" result="hardAlpha"/>
<feOffset/>
<feGaussianBlur stdDeviation="7.05"/>
<feComposite in2="hardAlpha" operator="out"/>
<feColorMatrix type="matrix" values="0 0 0 0 0 0 0 0 0 0.696203 0 0 0 0 1 0 0 0 0.87 0"/>
<feBlend mode="normal" in2="BackgroundImageFix" result="effect1_dropShadow_15_405"/>
<feBlend mode="normal" in="SourceGraphic" in2="effect1_dropShadow_15_405" result="shape"/>
</filter>
</defs>
</svg>
