<svg width="117" height="140" viewBox="0 0 117 140" fill="none" xmlns="http://www.w3.org/2000/svg">
<path d="M116.994 58.3333C116.994 26.1683 90.7524 0 58.4971 0C26.2418 0 0 26.1683 0 58.3333C0 81.6317 13.7644 101.774 33.6124 111.119C25.3819 117.314 19.813 126.356 18.0814 136.599L17.5082 140H98.5208L97.9475 136.599C96.2452 126.537 90.8109 117.588 82.7792 111.399C102.949 102.188 116.994 81.865 116.994 58.3333ZM91.4192 134.167H24.598C26.9379 125.656 32.4659 118.358 40.1641 113.727C45.9319 115.628 52.0975 116.667 58.4971 116.667C64.6627 116.667 70.6118 115.71 76.1983 113.937C83.7093 118.574 89.1203 125.796 91.4192 134.167ZM58.4971 110.833C29.4708 110.833 5.84971 87.2783 5.84971 58.3333C5.84971 29.3883 29.4708 5.83333 58.4971 5.83333C87.5233 5.83333 111.144 29.3883 111.144 58.3333C111.144 87.2783 87.5233 110.833 58.4971 110.833ZM58.4971 29.1667C42.3694 29.1667 29.2485 42.2508 29.2485 58.3333C29.2485 74.4158 42.3694 87.5 58.4971 87.5C74.6247 87.5 87.7456 74.4158 87.7456 58.3333C87.7456 42.2508 74.6247 29.1667 58.4971 29.1667ZM58.4971 81.6667C45.5926 81.6667 35.0982 71.2017 35.0982 58.3333C35.0982 45.465 45.5926 35 58.4971 35C71.4015 35 81.8959 45.465 81.8959 58.3333C81.8959 71.2017 71.4015 81.6667 58.4971 81.6667Z" fill="#7DC5DE"/>
</svg>
