<svg width="106" height="106" viewBox="0 0 106 106" fill="none" xmlns="http://www.w3.org/2000/svg">
<g filter="url(#filter0_d_15_573)">
<path d="M91.0996 36.5584L83.7878 14.1001H21.4114L14.0996 36.5584C14.0996 41.2875 16.6984 45.3813 20.5163 47.6079V71.8501H14.0996V81.4751C14.0996 86.7817 18.418 91.1001 23.7246 91.1001H81.4746C86.7812 91.1001 91.0996 86.7817 91.0996 81.4751V71.8501H84.6829V47.6079C88.5009 45.3813 91.0996 41.2875 91.0996 36.5584ZM26.0378 20.5168H36.5579V30.1418H42.9746V20.5168H62.2246V30.1418H68.6413V20.5168H79.1614L84.6669 37.0268C84.4263 40.3475 81.6479 42.9751 78.2663 42.9751H75.0579C71.5191 42.9751 68.6413 40.0972 68.6413 36.5584H62.2246C62.2246 40.0972 59.3467 42.9751 55.8079 42.9751H49.3913C45.8525 42.9751 42.9746 40.0972 42.9746 36.5584H36.5579C36.5579 40.0972 33.6801 42.9751 30.1413 42.9751H26.9329C23.5514 42.9751 20.7729 40.3475 20.5323 37.0268L26.0378 20.5168ZM84.6829 81.4751C84.6829 83.2429 83.2456 84.6834 81.4746 84.6834H23.7246C21.9536 84.6834 20.5163 83.2429 20.5163 81.4751V78.2668H40.0422L43.2505 81.4751H61.9487L65.157 78.2668H84.6829V81.4751ZM78.2663 71.8501H62.5005L59.2922 75.0584H45.907L42.6987 71.8501H26.9329V49.3918H30.1413C33.9945 49.3918 37.4114 47.6528 39.7663 44.9578C42.1212 47.6528 45.5381 49.3918 49.3913 49.3918H55.8079C59.6611 49.3918 63.078 47.6528 65.4329 44.9578C67.7879 47.6528 71.2047 49.3918 75.0579 49.3918H78.2663V71.8501Z" fill="#7DC5DE"/>
</g>
<defs>
<filter id="filter0_d_15_573" x="-0.000391006" y="9.72748e-05" width="105.2" height="105.2" filterUnits="userSpaceOnUse" color-interpolation-filters="sRGB">
<feFlood flood-opacity="0" result="BackgroundImageFix"/>
<feColorMatrix in="SourceAlpha" type="matrix" values="0 0 0 0 0 0 0 0 0 0 0 0 0 0 0 0 0 0 127 0" result="hardAlpha"/>
<feOffset/>
<feGaussianBlur stdDeviation="7.05"/>
<feComposite in2="hardAlpha" operator="out"/>
<feColorMatrix type="matrix" values="0 0 0 0 0 0 0 0 0 0.696203 0 0 0 0 1 0 0 0 0.87 0"/>
<feBlend mode="normal" in2="BackgroundImageFix" result="effect1_dropShadow_15_573"/>
<feBlend mode="normal" in="SourceGraphic" in2="effect1_dropShadow_15_573" result="shape"/>
</filter>
</defs>
</svg>
