<svg width="102" height="102" viewBox="0 0 102 102" fill="none" xmlns="http://www.w3.org/2000/svg">
<g filter="url(#filter0_d_15_446)">
<path d="M19.8135 68.4708C17.1708 72.1191 15.2741 76.2529 14.2321 80.6354C14.033 81.5079 14.0587 82.4166 14.3066 83.2765C14.5546 84.1364 15.0167 84.9194 15.6498 85.552C16.2828 86.1847 17.0661 86.6463 17.9263 86.8938C18.7864 87.1413 19.6953 87.1665 20.5679 86.9671C24.9444 85.9236 29.0724 84.0283 32.7163 81.3896C34.4298 79.6789 35.3933 77.3577 35.395 74.9366C35.3968 72.5156 34.4365 70.193 32.7255 68.4799C31.0144 66.7667 28.6928 65.8033 26.2714 65.8016C23.8499 65.7999 21.527 66.76 19.8135 68.4708ZM28.4154 77.0742C25.9638 78.6441 23.3009 79.8566 20.507 80.6749C21.3267 77.882 22.5393 75.2197 24.1084 72.7679C24.6821 72.214 25.4504 71.9074 26.2479 71.9144C27.0454 71.9213 27.8083 72.2411 28.3723 72.805C28.9362 73.3688 29.2561 74.1316 29.263 74.929C29.27 75.7263 28.9634 76.4946 28.4093 77.0681L28.4154 77.0742ZM68.8484 39.9508C68.8484 41.9672 68.0472 43.901 66.6212 45.3268C65.1951 46.7527 63.261 47.5537 61.2442 47.5537C59.2275 47.5537 57.2933 46.7527 55.8672 45.3268C54.4412 43.901 53.64 41.9672 53.64 39.9508C53.64 37.9344 54.4412 36.0005 55.8672 34.5747C57.2933 33.1489 59.2275 32.3479 61.2442 32.3479C63.261 32.3479 65.1951 33.1489 66.6212 34.5747C68.0472 36.0005 68.8484 37.9344 68.8484 39.9508ZM77.8883 14.1009C70.6498 14.0579 63.4988 15.6833 56.9904 18.851C50.482 22.0187 44.7913 26.6434 40.3601 32.3661C35.5273 32.5332 30.7872 33.7395 26.4626 35.903C21.4476 38.2119 17.3536 42.1382 14.8374 47.0519C14.2469 48.4227 14.0072 49.919 14.14 51.4057C14.2727 52.8924 14.7737 54.3226 15.5978 55.5671C16.4297 56.8422 17.5666 57.8896 18.9056 58.6145C20.2445 59.3393 21.7432 59.7187 23.2658 59.7183H30.8275C33.6467 59.7319 36.3466 60.8577 38.3402 62.8509C40.3337 64.8441 41.4597 67.5436 41.4733 70.3624V77.9227C41.4722 79.4445 41.8508 80.9426 42.5747 82.2812C43.2986 83.6199 44.345 84.757 45.6191 85.5894C46.8639 86.4134 48.2943 86.9143 49.7812 87.047C51.2682 87.1798 52.7647 86.9401 54.1358 86.3497C59.0503 83.834 62.9773 79.7406 65.2866 74.7264C67.4504 70.4026 68.657 65.6634 68.8241 60.8314C74.5569 56.3896 79.188 50.6858 82.3575 44.1634C85.5269 37.641 87.1493 30.4757 87.0985 23.2244C87.0949 22.0201 86.8536 20.8284 86.3884 19.7175C85.9232 18.6067 85.2433 17.5986 84.3877 16.751C83.532 15.9034 82.5175 15.233 81.4022 14.7782C80.2868 14.3235 79.0927 14.0933 77.8883 14.1009ZM27.3174 53.636H23.2658C22.7515 53.6399 22.2445 53.5134 21.7924 53.2682C21.3402 53.023 20.9577 52.6672 20.6804 52.234C20.4081 51.8317 20.2416 51.3671 20.1964 50.8834C20.1512 50.3997 20.2288 49.9124 20.4219 49.4666C22.3818 45.8753 25.4608 43.0221 29.191 41.3406C31.1183 40.3744 33.1532 39.6394 35.2531 39.151C32.2298 43.7624 29.5762 48.6059 27.3174 53.636ZM59.8633 71.9985C58.1815 75.7271 55.3291 78.8054 51.739 80.7662C51.2926 80.9595 50.8047 81.0372 50.3204 80.992C49.836 80.9468 49.3709 80.7802 48.968 80.5077C48.5347 80.2305 48.1789 79.848 47.9336 79.3959C47.6884 78.9438 47.5618 78.437 47.5658 77.9227V73.8719C52.5968 71.6134 57.4411 68.9603 62.0533 65.9375C61.5618 68.0375 60.8237 70.0719 59.8542 71.9985H59.8633ZM60.2739 59.7731C56.1579 62.6313 51.8128 65.1447 47.2829 67.2878C46.6644 63.9671 45.0547 60.9114 42.6658 58.5229C40.277 56.1345 37.2208 54.5251 33.8995 53.9067C36.0445 49.3816 38.5594 45.0413 41.4186 40.93C51.6629 26.6427 62.2784 20.6303 77.9734 20.1832C78.7656 20.1829 79.5266 20.4916 80.0947 21.0437C80.6627 21.5957 80.9929 22.3475 81.0151 23.1393C80.568 38.9168 74.5546 49.5304 60.2648 59.7731H60.2739Z" fill="#7DC5DE"/>
</g>
<defs>
<filter id="filter0_d_15_446" x="-0.000391006" y="9.72748e-05" width="101.2" height="101.2" filterUnits="userSpaceOnUse" color-interpolation-filters="sRGB">
<feFlood flood-opacity="0" result="BackgroundImageFix"/>
<feColorMatrix in="SourceAlpha" type="matrix" values="0 0 0 0 0 0 0 0 0 0 0 0 0 0 0 0 0 0 127 0" result="hardAlpha"/>
<feOffset/>
<feGaussianBlur stdDeviation="7.05"/>
<feComposite in2="hardAlpha" operator="out"/>
<feColorMatrix type="matrix" values="0 0 0 0 0 0 0 0 0 0.696203 0 0 0 0 1 0 0 0 0.87 0"/>
<feBlend mode="normal" in2="BackgroundImageFix" result="effect1_dropShadow_15_446"/>
<feBlend mode="normal" in="SourceGraphic" in2="effect1_dropShadow_15_446" result="shape"/>
</filter>
</defs>
</svg>
