<svg width="195" height="192" viewBox="0 0 195 192" fill="none" xmlns="http://www.w3.org/2000/svg">
<g filter="url(#filter0_d_15_378)">
<path d="M180.1 126.334C180.1 140.414 172.028 153.242 159.35 159.605V173.868C159.35 175.745 157.8 177.267 155.891 177.267C153.982 177.267 152.433 175.745 152.433 173.868V157.457C152.433 156.104 153.249 154.887 154.501 154.343C165.851 149.462 173.183 138.469 173.183 126.334C173.183 117.238 169.088 108.672 161.943 102.846C160.595 102.078 159.613 102.526 159.35 104.042V118.808C159.35 127.47 153.152 134.988 144.936 136.301C134.692 138.19 124.531 129.761 124.767 119.536V104.042C124.504 102.526 123.522 102.078 122.173 102.846C115.035 108.672 110.933 117.238 110.933 126.334C110.933 138.469 118.265 149.462 129.615 154.343C130.874 154.887 131.683 156.104 131.683 157.457V173.868C131.683 175.745 130.134 177.267 128.225 177.267C126.316 177.267 124.767 175.745 124.767 173.868V159.605C112.088 153.235 104.017 140.414 104.017 126.334C104.017 115.212 109.024 104.743 117.753 97.6112C122.948 93.0427 131.939 97.1897 131.683 104.042V119.536C131.559 125.688 137.632 130.753 143.822 129.591C148.733 128.809 152.433 124.172 152.433 118.808V104.042C152.177 97.1897 161.169 93.0495 166.363 97.6112C175.092 104.743 180.1 115.205 180.1 126.334ZM111.023 68.4871C111.023 90.9896 92.4107 109.284 69.5236 109.284C46.6365 109.284 28.0239 90.9896 28.0239 68.4939L28.0101 61.6956H21.0174C19.1084 61.6956 17.5591 60.1728 17.5591 58.2964C17.5591 56.4201 19.1084 54.8973 21.0174 54.8973H28.0031V51.5593C27.5397 31.443 45.5644 13.6925 66.0376 14.1072H72.9543C93.8978 14.1072 110.961 30.8515 110.996 51.4369V54.8973H117.857C119.766 54.8973 121.315 56.4201 121.315 58.2964C121.315 60.1728 119.766 61.6956 117.857 61.6956H111.016L111.03 68.4871H111.023ZM34.9198 54.8973H104.079V51.4505C104.051 38.1801 95.3226 26.9765 83.2669 22.7683V37.9014C83.2669 39.7777 81.7176 41.3006 79.8086 41.3006C77.8996 41.3006 76.3503 39.7777 76.3503 37.9014V21.2455C75.216 21.1231 74.1163 20.9056 72.9473 20.9056H66.0307C64.8341 20.9056 63.6791 21.1163 62.5102 21.2455V37.9014C62.5102 39.7777 60.9608 41.3006 59.0519 41.3006C57.1429 41.3006 55.5935 39.7777 55.5935 37.9014V22.7751C51.2983 24.2775 47.3213 26.6162 44.0013 29.8794C38.1222 35.6716 34.8921 43.3605 34.9059 51.5457V54.8973H34.9198ZM104.114 68.4939L104.1 61.6956H34.9267L34.9405 68.4871C34.9405 87.2369 50.4545 102.486 69.5236 102.486C88.5927 102.486 104.107 87.2369 104.107 68.4939H104.114ZM87.8803 119.148C81.9943 117.116 75.8177 116.082 69.5305 116.082C39.0144 116.082 14.1907 140.482 14.1907 170.381L14.1007 173.78C14.0523 175.656 15.5602 177.213 17.4691 177.267H17.5591C19.4265 177.267 20.9689 175.799 21.0174 173.957L21.1073 170.469C21.1073 144.227 42.8255 122.881 69.5236 122.881C75.0292 122.881 80.4311 123.785 85.584 125.559C87.3616 126.171 89.3536 125.253 89.9899 123.479C90.6262 121.711 89.6856 119.767 87.8803 119.148Z" fill="#7DC5DE"/>
</g>
<defs>
<filter id="filter0_d_15_378" x="-0.000391006" y="9.72748e-05" width="194.2" height="191.367" filterUnits="userSpaceOnUse" color-interpolation-filters="sRGB">
<feFlood flood-opacity="0" result="BackgroundImageFix"/>
<feColorMatrix in="SourceAlpha" type="matrix" values="0 0 0 0 0 0 0 0 0 0 0 0 0 0 0 0 0 0 127 0" result="hardAlpha"/>
<feOffset/>
<feGaussianBlur stdDeviation="7.05"/>
<feComposite in2="hardAlpha" operator="out"/>
<feColorMatrix type="matrix" values="0 0 0 0 0 0 0 0 0 0.696203 0 0 0 0 1 0 0 0 0.87 0"/>
<feBlend mode="normal" in2="BackgroundImageFix" result="effect1_dropShadow_15_378"/>
<feBlend mode="normal" in="SourceGraphic" in2="effect1_dropShadow_15_378" result="shape"/>
</filter>
</defs>
</svg>
