<svg width="44" height="44" viewBox="0 0 44 44" fill="none" xmlns="http://www.w3.org/2000/svg">
<g clip-path="url(#clip0_15_739)">
<rect width="44" height="44" rx="22" fill="#7DC5DE"/>
<path d="M20.5 -2.75C7.39 -2.75 -3.25 7.89 -3.25 21C-3.25 34.11 7.39 44.75 20.5 44.75C33.61 44.75 44.25 34.11 44.25 21C44.25 7.89 33.61 -2.75 20.5 -2.75ZM31.52 13.4C31.1637 17.1525 29.62 26.2725 28.8363 30.4762C28.5037 32.2575 27.8387 32.8512 27.2213 32.9225C25.8438 33.0413 24.7987 32.02 23.4688 31.1413C21.3787 29.7638 20.1913 28.9088 18.1725 27.5788C15.8213 26.035 17.3412 25.18 18.695 23.8025C19.0512 23.4463 25.1313 17.9125 25.25 17.4137C25.2665 17.3382 25.2643 17.2598 25.2436 17.1853C25.2229 17.1108 25.1843 17.0425 25.1313 16.9863C24.9888 16.8675 24.7987 16.915 24.6325 16.9387C24.4187 16.9862 21.0938 19.195 14.61 23.565C13.66 24.2062 12.805 24.5387 12.045 24.515C11.19 24.4912 9.575 24.04 8.36375 23.6362C6.8675 23.1612 5.70375 22.9 5.79875 22.0688C5.84625 21.6412 6.44 21.2137 7.55625 20.7625C14.4913 17.7462 19.0988 15.7513 21.4025 14.8013C28.005 12.0463 29.3588 11.5712 30.2613 11.5712C30.4513 11.5712 30.9025 11.6187 31.1875 11.8562C31.425 12.0462 31.4963 12.3075 31.52 12.4975C31.4963 12.64 31.5437 13.0675 31.52 13.4Z" fill="#011A20"/>
</g>
<rect x="0.5" y="0.5" width="43" height="43" rx="21.5" stroke="#7DC5DE"/>
<defs>
<clipPath id="clip0_15_739">
<rect width="44" height="44" rx="22" fill="white"/>
</clipPath>
</defs>
</svg>
