<svg width="106" height="106" viewBox="0 0 106 106" fill="none" xmlns="http://www.w3.org/2000/svg">
<g filter="url(#filter0_d_15_564)">
<path d="M42.9746 55.8084H51.6275C49.5517 57.4736 47.9251 59.6713 47.0171 62.2251H42.9746V55.8084ZM91.0996 67.0376V91.1001H52.5996V67.0376C52.5996 62.6133 56.1962 59.0168 60.6204 59.0168H62.2246V57.4126C62.2246 54.7593 64.3838 52.6001 67.0371 52.6001H76.6621C79.3154 52.6001 81.4746 54.7593 81.4746 57.4126V59.0168H83.0788C87.5031 59.0168 91.0996 62.6133 91.0996 67.0376ZM59.0163 67.0376V71.8501H84.6829V67.0376C84.6829 66.1553 83.9611 65.4334 83.0788 65.4334H60.6204C59.7382 65.4334 59.0163 66.1553 59.0163 67.0376ZM84.6829 84.6834V78.2668H75.0579V81.4751H68.6413V78.2668H59.0163V84.6834H84.6829ZM20.5163 23.7251C20.5163 21.9541 21.9536 20.5168 23.7246 20.5168H55.8079C57.5789 20.5168 59.0163 21.9541 59.0163 23.7251V49.6003C60.7039 47.8678 62.9272 46.6647 65.4329 46.3053V23.7251C65.4329 18.4185 61.1145 14.1001 55.8079 14.1001H23.7246C18.418 14.1001 14.0996 18.4185 14.0996 23.7251V91.1001H46.1829V84.6834H20.5163V23.7251ZM36.5579 55.8084H26.9329V62.2251H36.5579V55.8084ZM26.9329 75.0584H36.5579V68.6418H26.9329V75.0584ZM36.5579 30.1418H26.9329V36.5584H36.5579V30.1418ZM52.5996 30.1418H42.9746V36.5584H52.5996V30.1418ZM36.5579 42.9751H26.9329V49.3918H36.5579V42.9751ZM42.9746 49.3918H52.5996V42.9751H42.9746V49.3918Z" fill="#7DC5DE"/>
</g>
<defs>
<filter id="filter0_d_15_564" x="-0.000391006" y="9.72748e-05" width="105.2" height="105.2" filterUnits="userSpaceOnUse" color-interpolation-filters="sRGB">
<feFlood flood-opacity="0" result="BackgroundImageFix"/>
<feColorMatrix in="SourceAlpha" type="matrix" values="0 0 0 0 0 0 0 0 0 0 0 0 0 0 0 0 0 0 127 0" result="hardAlpha"/>
<feOffset/>
<feGaussianBlur stdDeviation="7.05"/>
<feComposite in2="hardAlpha" operator="out"/>
<feColorMatrix type="matrix" values="0 0 0 0 0 0 0 0 0 0.696203 0 0 0 0 1 0 0 0 0.87 0"/>
<feBlend mode="normal" in2="BackgroundImageFix" result="effect1_dropShadow_15_564"/>
<feBlend mode="normal" in="SourceGraphic" in2="effect1_dropShadow_15_564" result="shape"/>
</filter>
</defs>
</svg>
