<svg width="106" height="106" viewBox="0 0 106 106" fill="none" xmlns="http://www.w3.org/2000/svg">
<g filter="url(#filter0_d_15_555)">
<path d="M88.2841 74.6702L63.6423 50.027L59.115 54.5123L43.0401 38.4385V25.079L24.1384 14.1803L14.24 24.0748L25.1427 42.9751H38.5032L54.5556 59.0264L49.9642 63.5726L74.6701 88.28C76.4894 90.0959 78.9054 91.1001 81.4787 91.1001C84.052 91.1001 86.468 90.0991 88.2841 88.28C92.0381 84.5262 92.0381 78.424 88.2841 74.6702ZM36.6229 36.5584H28.8518L22.2614 25.1336L25.1972 22.1947L36.6262 28.7878L36.6229 36.5584ZM83.7472 83.7434C82.5375 84.9594 80.4231 84.9594 79.2103 83.7434L59.0605 63.5983L63.6198 59.0841L83.744 79.2068C84.9953 80.4581 84.9953 82.4921 83.744 83.7434H83.7472ZM49.393 36.1189V21.7167C53.7856 17.0421 60.0038 14.1001 66.9118 14.1001C70.7011 14.1001 74.3493 14.9728 77.76 16.7021L81.7097 18.7041L66.2477 34.1618C65.6412 34.7682 65.3075 35.5735 65.3075 36.4301C65.3075 37.2867 65.6412 38.092 66.2444 38.6952C67.4605 39.9111 69.5717 39.9079 70.7846 38.6952L86.2595 23.2214L88.2745 27.1163C90.0648 30.5717 90.9729 34.2869 90.9729 38.1594C90.9729 46.3406 86.8627 53.569 80.606 57.9163L75.9632 53.2738C81.1001 50.1842 84.5557 44.5728 84.5557 38.1562C84.5557 36.8793 84.421 35.6248 84.1515 34.3992L75.3215 43.2286C71.5675 46.9791 65.4616 46.9823 61.7075 43.2286C59.8915 41.4158 58.8872 38.9968 58.8872 36.4237C58.8872 33.8506 59.8883 31.4347 61.7075 29.6188L70.4573 20.8697C69.2958 20.6323 68.115 20.5103 66.9118 20.5103C57.8733 20.5103 50.4102 27.3441 49.393 36.1125V36.1189ZM43.5246 66.2098L48.0615 70.7464L30.5267 88.28C28.7106 90.0959 26.2914 91.1001 23.7213 91.1001C21.1512 91.1001 18.732 90.0991 16.9127 88.28C13.1619 84.5262 13.1619 78.424 16.9127 74.6702L39.0165 52.568L43.5535 57.1046L21.4496 79.2068C20.1983 80.4581 20.1983 82.4921 21.4496 83.7434C22.6625 84.9594 24.7769 84.9594 25.9865 83.7434L43.5246 66.2098Z" fill="#7DC5DE"/>
</g>
<defs>
<filter id="filter0_d_15_555" x="-0.000391006" y="9.72748e-05" width="105.2" height="105.2" filterUnits="userSpaceOnUse" color-interpolation-filters="sRGB">
<feFlood flood-opacity="0" result="BackgroundImageFix"/>
<feColorMatrix in="SourceAlpha" type="matrix" values="0 0 0 0 0 0 0 0 0 0 0 0 0 0 0 0 0 0 127 0" result="hardAlpha"/>
<feOffset/>
<feGaussianBlur stdDeviation="7.05"/>
<feComposite in2="hardAlpha" operator="out"/>
<feColorMatrix type="matrix" values="0 0 0 0 0 0 0 0 0 0.696203 0 0 0 0 1 0 0 0 0.87 0"/>
<feBlend mode="normal" in2="BackgroundImageFix" result="effect1_dropShadow_15_555"/>
<feBlend mode="normal" in="SourceGraphic" in2="effect1_dropShadow_15_555" result="shape"/>
</filter>
</defs>
</svg>
