<svg width="38" height="38" viewBox="0 0 38 38" fill="none" xmlns="http://www.w3.org/2000/svg">
<path d="M7.47333 4.22222C7.6 6.10111 7.91667 7.93778 8.42333 9.69L5.89 12.2233C5.02444 9.69 4.47556 7.00889 4.28556 4.22222H7.47333ZM28.2889 29.5978C30.0833 30.1044 31.92 30.4211 33.7778 30.5478V33.6933C30.9911 33.5033 28.31 32.9544 25.7556 32.11L28.2889 29.5978ZM9.5 0H2.11111C0.95 0 0 0.95 0 2.11111C0 21.9344 16.0656 38 35.8889 38C37.05 38 38 37.05 38 35.8889V28.5211C38 27.36 37.05 26.41 35.8889 26.41C33.2711 26.41 30.7167 25.9878 28.3522 25.2067C28.1426 25.1307 27.9206 25.0948 27.6978 25.1011C27.1489 25.1011 26.6211 25.3122 26.1989 25.7133L21.5544 30.3578C15.5703 27.2975 10.7025 22.4297 7.64222 16.4456L12.2867 11.8011C12.8778 11.21 13.0467 10.3867 12.8144 9.64778C12.0136 7.2159 11.6073 4.67146 11.6111 2.11111C11.6111 0.95 10.6611 0 9.5 0Z" fill="#69B7CE"/>
</svg>
