<svg width="49" height="48" viewBox="0 0 49 48" fill="none" xmlns="http://www.w3.org/2000/svg">
<path d="M24.5 0.5C37.7646 0.5 48.5 11.031 48.5 24C48.5 36.969 37.7646 47.5 24.5 47.5C11.2354 47.5 0.5 36.969 0.5 24C0.5 11.031 11.2354 0.5 24.5 0.5Z" stroke="#7DC5DE"/>
<path d="M35.6331 27.0624C34.7934 26.2026 33.9294 25.5473 33.1415 25.0503C32.4468 24.612 32.3974 23.5201 33.0469 23.0173C33.8842 22.3691 34.8225 21.4858 35.6781 20.3103C36.7624 18.8168 37.3483 17.3542 37.6728 16.2288C37.8465 15.6264 37.3723 15.055 36.7453 15.055H33.8416C33.4009 15.055 33.0166 15.345 32.8603 15.7571C32.5305 16.6268 31.9884 17.7207 31.0895 18.8163C29.8947 20.2699 28.5247 21.1665 27.4396 21.7095C26.8225 22.0183 26.1385 21.5401 26.1366 20.85L26.1235 16.0492C26.122 15.4971 25.6732 15.0506 25.1211 15.052L22.5917 15.0581C22.0392 15.0594 21.5925 15.5085 21.5941 16.061L21.6238 26.3746C21.6258 27.0601 20.9512 27.5433 20.3381 27.2366C19.5412 26.8378 18.7531 26.3049 18.0385 25.5958C16.6338 24.1981 16.051 22.6133 15.5358 21.2128C14.9323 19.5749 14.5994 17.8612 14.5388 16.1076C14.5197 15.5554 14.0858 15.0967 13.5335 15.0836L11.0049 15.0237C10.4534 15.0106 9.99302 15.4467 10.0049 15.9981C10.0546 18.3032 10.4813 20.5572 11.2737 22.7123C11.879 24.3577 12.7066 26.6084 14.8067 28.6995C17.6585 31.539 21.1886 32.4552 23.6463 32.7249L25.0572 32.8788C25.6499 32.9434 26.1672 32.4783 26.1656 31.882L26.1546 27.7813C26.1531 27.192 26.6611 26.7245 27.2366 26.8511C28.0502 27.0302 29.0629 27.3742 30.0816 28.0446C32.0474 29.3411 32.9516 31.1431 33.347 32.2233C33.5033 32.6504 33.8952 32.9587 34.35 32.9587H37.69C38.3496 32.9587 38.829 32.3308 38.5954 31.714C38.1033 30.415 37.2235 28.689 35.6331 27.0624Z" fill="#7DC5DE"/>
</svg>
