<svg width="59" height="71" viewBox="0 0 59 71" fill="none" xmlns="http://www.w3.org/2000/svg">
<path d="M29.3466 70.8L28.3023 70.3368C27.14 69.8265 0 57.5692 0 35.3734V16.1276C0.00103471 14.2756 0.586411 12.471 1.67277 10.971C2.75912 9.47094 4.29107 8.35191 6.05045 7.77325L29.5 0L52.9496 7.77325C54.7089 8.35191 56.2409 9.47094 57.3272 10.971C58.4136 12.471 58.999 14.2756 59 16.1276V35.3734C59 60.6756 31.6004 70.0507 30.4322 70.4401L29.3466 70.8ZM29.5 6.18615L7.9178 13.3428C7.33059 13.5346 6.81913 13.9073 6.45668 14.4076C6.09422 14.9078 5.89936 15.5099 5.9 16.1276V35.3734C5.9 51.5807 24.898 62.0945 29.6387 64.4634C34.3704 62.5606 53.1 53.8493 53.1 35.3734V16.1276C53.1006 15.5099 52.9058 14.9078 52.5433 14.4076C52.1809 13.9073 51.6694 13.5346 51.0822 13.3428L29.5 6.18615Z" fill="#7DC5DE"/>
</svg>
