<svg width="103" height="103" viewBox="0 0 103 103" fill="none" xmlns="http://www.w3.org/2000/svg">
<g filter="url(#filter0_d_470_65)">
<path d="M45.5897 38.295L38.7694 34.4994V32.6032H47.7079L50.1253 23.3532H52.1233L54.5406 32.6032H63.4299V34.4871L56.6558 38.4122L59.3814 46.694L57.8274 47.7701L51.1274 42.5901L44.3964 47.7917L42.9164 46.6755L45.5959 38.2981L45.5897 38.295ZM67.5739 37.4224L69.0539 38.5386L75.7848 33.337L82.4849 38.517L84.0419 37.4409L81.3163 29.1591L88.0904 25.234V23.3501H79.2011L76.7838 14.1001H74.7858L72.3684 23.3501H63.4299V25.2463L70.2502 29.0419L67.5708 37.4193L67.5739 37.4224ZM18.2405 55.9224L19.7205 57.0386L26.4514 51.837L33.1515 57.017L34.7086 55.9409L31.9829 47.6591L38.757 43.734V41.8501H29.8678L27.4504 32.6001H25.4524L23.0351 41.8501H14.0996V43.7463L20.9199 47.5419L18.2405 55.9193V55.9224ZM88.0996 55.7251V88.1001H14.0996V74.2251C14.0996 69.9763 17.556 66.5168 21.8079 66.5168H34.1413C34.6685 66.5168 35.1834 66.5692 35.6829 66.6709V64.9751C35.6829 60.7263 39.1394 57.2668 43.3913 57.2668H55.7246C56.2519 57.2668 56.7668 57.3192 57.2663 57.4209V55.7251C57.2663 51.4763 60.7227 48.0168 64.9746 48.0168H80.3913C84.6432 48.0168 88.0996 51.4763 88.0996 55.7251ZM41.8496 81.9334H57.2663V64.9751C57.2663 64.1241 56.5725 63.4334 55.7246 63.4334H43.3913C42.5434 63.4334 41.8496 64.1241 41.8496 64.9751V81.9334ZM20.2663 81.9334H35.6829V74.2251C35.6829 73.3741 34.9892 72.6834 34.1413 72.6834H21.8079C20.96 72.6834 20.2663 73.3741 20.2663 74.2251V81.9334ZM81.9329 55.7251C81.9329 54.8741 81.2392 54.1834 80.3913 54.1834H64.9746C64.1267 54.1834 63.4329 54.8741 63.4329 55.7251V81.9334H81.9329V55.7251Z" fill="#7DC5DE"/>
</g>
<defs>
<filter id="filter0_d_470_65" x="-0.000391006" y="9.72748e-05" width="102.2" height="102.2" filterUnits="userSpaceOnUse" color-interpolation-filters="sRGB">
<feFlood flood-opacity="0" result="BackgroundImageFix"/>
<feColorMatrix in="SourceAlpha" type="matrix" values="0 0 0 0 0 0 0 0 0 0 0 0 0 0 0 0 0 0 127 0" result="hardAlpha"/>
<feOffset/>
<feGaussianBlur stdDeviation="7.05"/>
<feComposite in2="hardAlpha" operator="out"/>
<feColorMatrix type="matrix" values="0 0 0 0 0 0 0 0 0 0.696203 0 0 0 0 1 0 0 0 0.87 0"/>
<feBlend mode="normal" in2="BackgroundImageFix" result="effect1_dropShadow_470_65"/>
<feBlend mode="normal" in="SourceGraphic" in2="effect1_dropShadow_470_65" result="shape"/>
</filter>
</defs>
</svg>
