<svg width="106" height="106" viewBox="0 0 106 106" fill="none" xmlns="http://www.w3.org/2000/svg">
<g filter="url(#filter0_d_15_546)">
<path d="M81.4746 34.7104V26.9334C86.7812 26.9334 91.0996 22.615 91.0996 17.3084C91.0996 15.5374 89.6655 14.1001 87.8913 14.1001C86.1171 14.1001 84.6829 15.5374 84.6829 17.3084C84.6829 19.0794 83.2456 20.5168 81.4746 20.5168H20.5163V17.3084C20.5163 15.5374 19.0822 14.1001 17.3079 14.1001C15.5337 14.1001 14.0996 15.5374 14.0996 17.3084V87.8918C14.0996 89.6628 15.5337 91.1001 17.3079 91.1001C19.0822 91.1001 20.5163 89.6628 20.5163 87.8918V26.9334H36.5579V34.7104C30.9017 37.1937 26.9329 42.8307 26.9329 49.3918V75.0584C26.9329 83.9038 34.1292 91.1001 42.9746 91.1001H75.0579C83.9033 91.1001 91.0996 83.9038 91.0996 75.0584V49.3918C91.0996 42.8307 87.1309 37.1937 81.4746 34.7104ZM42.9746 26.9334H75.0579V33.3501H42.9746V26.9334ZM84.6829 75.0584C84.6829 80.365 80.3645 84.6834 75.0579 84.6834H42.9746C37.668 84.6834 33.3496 80.365 33.3496 75.0584V49.3918C33.3496 44.0852 37.668 39.7668 42.9746 39.7668H75.0579C80.3645 39.7668 84.6829 44.0852 84.6829 49.3918V75.0584ZM75.0579 68.6418C75.0579 60.8968 69.5364 54.416 62.2246 52.9241V52.6001C62.2246 50.8291 60.7905 49.3918 59.0163 49.3918C57.2421 49.3918 55.8079 50.8291 55.8079 52.6001V52.9241C48.4962 54.416 42.9746 60.8936 42.9746 68.6418C41.2004 68.6418 39.7663 70.0791 39.7663 71.8501C39.7663 73.6211 41.2004 75.0584 42.9746 75.0584H75.0579C76.8321 75.0584 78.2663 73.6211 78.2663 71.8501C78.2663 70.0791 76.8321 68.6418 75.0579 68.6418ZM59.0163 59.0168C64.3229 59.0168 68.6413 63.3352 68.6413 68.6418H49.3913C49.3913 63.3352 53.7097 59.0168 59.0163 59.0168Z" fill="#7DC5DE"/>
</g>
<defs>
<filter id="filter0_d_15_546" x="-0.000391006" y="9.72748e-05" width="105.2" height="105.2" filterUnits="userSpaceOnUse" color-interpolation-filters="sRGB">
<feFlood flood-opacity="0" result="BackgroundImageFix"/>
<feColorMatrix in="SourceAlpha" type="matrix" values="0 0 0 0 0 0 0 0 0 0 0 0 0 0 0 0 0 0 127 0" result="hardAlpha"/>
<feOffset/>
<feGaussianBlur stdDeviation="7.05"/>
<feComposite in2="hardAlpha" operator="out"/>
<feColorMatrix type="matrix" values="0 0 0 0 0 0 0 0 0 0.696203 0 0 0 0 1 0 0 0 0.87 0"/>
<feBlend mode="normal" in2="BackgroundImageFix" result="effect1_dropShadow_15_546"/>
<feBlend mode="normal" in="SourceGraphic" in2="effect1_dropShadow_15_546" result="shape"/>
</filter>
</defs>
</svg>
