<svg width="75" height="74" viewBox="0 0 75 74" fill="none" xmlns="http://www.w3.org/2000/svg">
<path d="M31.1251 53.7726C31.8189 53.0787 31.1251 44.4058 31.1251 44.4058L35.635 45.4465V54.4664C35.4897 56.0806 35.0455 56.7454 33.9004 57.5887C29.8156 59.292 26.7255 59.6763 22.4521 60.364L18.2891 56.5479C18.2891 56.5479 30.4312 54.4664 31.1251 53.7726Z" stroke="#FAF8F6" stroke-width="2"/>
<rect x="-1.18606" y="0.770236" width="13.8186" height="3.86623" rx="1" transform="matrix(-0.978148 -0.207912 -0.207912 0.978148 40.0427 40.9719)" stroke="#FAF8F6" stroke-width="2"/>
<rect x="-1.18606" y="0.770236" width="10.1145" height="3.54046" rx="1.77023" transform="matrix(-0.978148 -0.207912 -0.207912 0.978148 37.8708 28.196)" stroke="#FAF8F6" stroke-width="2"/>
<rect width="3.75797" height="2.10095" rx="1.05048" transform="matrix(-0.207912 0.978148 0.978148 0.207912 44.6819 30.5288)" fill="#69B7CE"/>
<rect width="3.75797" height="2.10095" rx="1.05048" transform="matrix(-0.207912 0.978148 0.978148 0.207912 41.2122 29.835)" fill="#69B7CE"/>
<path d="M66.7296 32.7049L64.686 42.3192C64.5745 42.8439 64.9097 43.3601 65.4344 43.4716C67.024 43.8093 68.5866 42.794 68.9245 41.2044L70.1484 35.4463C70.4861 33.8568 69.4715 32.2945 67.8821 31.9564C67.3573 31.8449 66.8411 32.1801 66.7296 32.7049Z" stroke="#FAF8F6" stroke-width="2"/>
<path d="M65.92 31.3753L27.3185 23.1703C26.7784 23.0557 26.2473 23.4004 26.1325 23.9405L24.1563 33.2377C23.5824 35.9386 25.3067 38.5938 28.0075 39.168L59.7619 45.9176C61.9227 46.3769 64.0467 44.9974 64.5062 42.8367L66.6903 32.5614L66.7068 32.4601C66.7614 31.9563 66.4264 31.4829 65.92 31.3753Z" stroke="#FAF8F6" stroke-width="2"/>
<path d="M32.9003 16.6026C30.1847 15.9939 27.4945 17.7192 26.9157 20.4413L26.3549 23.0796L64.7643 31.08C66.0845 31.3549 67.4543 30.9461 68.4079 29.9925L71.5596 26.8416C72.117 26.2842 71.84 25.3307 71.0708 25.1583L32.9003 16.6026Z" stroke="#FAF8F6" stroke-width="2"/>
<path d="M57.949 15.6189C53.2271 11.1982 47.0305 8.54483 40.4081 8.10794C33.7857 7.67105 27.1444 9.47749 21.6083 13.2215C16.0723 16.9654 11.9816 22.417 10.0288 28.6532C8.07596 34.8895 8.38092 41.5273 10.8921 47.4432C13.4032 53.359 17.9662 58.1894 23.8088 61.1168C29.6513 64.0441 36.4144 64.8884 42.9532 63.5069C49.4921 62.1254 55.405 58.6029 59.691 53.5357" stroke="#FAF8F6" stroke-width="2" stroke-linecap="round" stroke-linejoin="round"/>
</svg>
