<svg width="447" height="388" viewBox="0 0 447 388" fill="none" xmlns="http://www.w3.org/2000/svg">
<path d="M210.398 341.086C210.398 341.086 83.7848 311.82 79.9649 92.9759C121.927 88.8331 162.991 83.3461 205.2 43.3314C248.78 81.8487 290.011 85.8991 332.092 88.575C335.912 307.42 210.398 341.086 210.398 341.086Z" fill="url(#paint0_linear_15_320)" fill-opacity="0.2" stroke="url(#paint1_linear_15_320)" stroke-width="8" stroke-linecap="round" stroke-linejoin="round"/>
<path d="M228.613 250.491L215.907 167.047C221.427 163.919 225.103 157.946 224.984 151.158C224.808 141.03 216.251 133.016 206.038 133.603C196.818 134.133 189.438 141.743 189.191 150.975C189.003 158.107 192.969 164.298 198.814 167.35L189.028 251.186L228.608 250.495L228.613 250.491Z" stroke="url(#paint2_linear_15_320)" stroke-width="8" stroke-linecap="round" stroke-linejoin="round"/>
<path d="M273.599 80.6162C279.25 78.2541 284.816 76.0585 290.273 74.0344C348.33 52.5196 394.513 50.5101 409.379 73.0111C433.162 109.011 367.756 194.13 263.289 263.123C158.821 332.116 54.8509 358.863 31.0677 322.859C14.6037 297.936 40.8797 249.48 93.2667 199.126" stroke="url(#paint3_linear_15_320)" stroke-width="8" stroke-linecap="round" stroke-linejoin="round"/>
<path style="mix-blend-mode:color-dodge" d="M164.843 320.845C252.837 319.309 324.136 316.049 324.092 313.564C324.049 311.079 252.68 310.31 164.686 311.846C76.6919 313.382 5.39356 316.642 5.43694 319.127C5.48031 321.611 76.8489 322.381 164.843 320.845Z" fill="url(#paint4_radial_15_320)"/>
<path style="mix-blend-mode:color-dodge" opacity="0.5" d="M165.401 352.828C192.444 352.356 214.082 335.639 213.731 315.491C213.379 295.343 191.171 279.392 164.127 279.864C137.083 280.336 115.445 297.052 115.797 317.2C116.149 337.349 138.357 353.3 165.401 352.828Z" fill="url(#paint5_radial_15_320)"/>
<path style="mix-blend-mode:color-dodge" opacity="0.8" d="M165.046 332.507C185.234 332.154 201.472 324.633 201.317 315.708C201.161 306.783 184.669 299.833 164.482 300.185C144.295 300.538 128.056 308.059 128.212 316.984C128.368 325.909 144.859 332.859 165.046 332.507Z" fill="url(#paint6_radial_15_320)"/>
<path style="mix-blend-mode:color-dodge" d="M167.834 319.306C203.385 282.497 230.831 251.331 229.136 249.694C227.442 248.058 197.248 276.571 161.696 313.38C126.145 350.189 98.6992 381.355 100.394 382.992C102.089 384.628 132.283 356.115 167.834 319.306Z" fill="url(#paint7_radial_15_320)"/>
<path style="mix-blend-mode:color-dodge" opacity="0.5" d="M189.647 340.367C200.572 329.055 198.289 309.128 184.547 295.86C170.805 282.592 150.808 281.005 139.883 292.317C128.957 303.629 131.241 323.556 144.982 336.824C158.724 350.093 178.721 351.679 189.647 340.367Z" fill="url(#paint8_radial_15_320)"/>
<path style="mix-blend-mode:color-dodge" opacity="0.8" d="M175.787 326.985C183.944 318.539 185.622 306.928 179.535 301.05C173.447 295.173 161.9 297.254 153.743 305.7C145.586 314.145 143.908 325.757 149.996 331.634C156.083 337.512 167.63 335.43 175.787 326.985Z" fill="url(#paint9_radial_15_320)"/>
<path style="mix-blend-mode:color-dodge" d="M358.314 106.698C357.593 109 315.016 97.7617 263.214 81.5967C211.413 65.4317 170 50.4581 170.715 48.1518C171.431 45.8454 214.013 57.0884 265.815 73.2535C317.616 89.4185 359.029 104.392 358.314 106.698Z" fill="url(#paint10_radial_15_320)"/>
<path style="mix-blend-mode:color-dodge" opacity="0.5" d="M305.594 90.2029C308.157 81.9883 291.828 69.586 269.121 62.5015C246.413 55.417 225.927 56.3332 223.364 64.5477C220.8 72.7623 237.13 85.1646 259.837 92.2491C282.544 99.3336 303.03 98.4175 305.594 90.2029Z" fill="url(#paint11_radial_15_320)"/>
<path style="mix-blend-mode:color-dodge" opacity="0.8" d="M295.171 86.9515C296.307 83.3125 283.486 76.0752 266.534 70.7865C249.583 65.4978 234.921 64.1604 233.785 67.7994C232.649 71.4383 245.47 78.6756 262.422 83.9644C279.373 89.2531 294.036 90.5904 295.171 86.9515Z" fill="url(#paint12_radial_15_320)"/>
<path style="mix-blend-mode:color-dodge" d="M318.624 234.527C386.573 175.883 438.887 125.135 435.471 121.178C432.055 117.221 374.202 161.553 306.253 220.197C238.303 278.841 185.989 329.589 189.405 333.546C192.821 337.503 250.675 293.171 318.624 234.527Z" fill="url(#paint13_radial_15_320)"/>
<path style="mix-blend-mode:color-dodge" opacity="0.6" d="M334.66 253.102C365.012 226.906 379.668 194.147 367.396 179.931C355.123 165.715 320.569 175.426 290.217 201.622C259.865 227.817 245.209 260.577 257.481 274.793C269.754 289.009 304.308 279.297 334.66 253.102Z" fill="url(#paint14_radial_15_320)"/>
<path style="mix-blend-mode:color-dodge" opacity="0.7" d="M330.984 248.844C383.324 203.672 417.451 157.435 407.208 145.57C396.966 133.706 346.233 160.708 293.893 205.88C241.553 251.053 207.426 297.29 217.668 309.154C227.911 321.018 278.644 294.016 330.984 248.844Z" fill="url(#paint15_radial_15_320)"/>
<path style="mix-blend-mode:color-dodge" d="M117.593 102.372C138.6 102.006 155.329 84.4375 154.957 63.1329C154.585 41.8283 137.254 24.8547 116.246 25.2214C95.2382 25.5881 78.5095 43.1562 78.8813 64.4608C79.2532 85.7654 96.5848 102.739 117.593 102.372Z" fill="url(#paint16_radial_15_320)"/>
<path style="mix-blend-mode:color-dodge" d="M40.1999 30.5149C46.61 30.403 51.7144 25.0427 51.6009 18.5425C51.4874 12.0422 46.1991 6.86337 39.789 6.97526C33.379 7.08715 28.2746 12.4474 28.3881 18.9476C28.5015 25.4479 33.7899 30.6268 40.1999 30.5149Z" fill="url(#paint17_radial_15_320)"/>
<path style="mix-blend-mode:color-dodge" d="M90.586 100.793C99.858 100.631 107.241 92.8778 107.077 83.4751C106.913 74.0725 99.2636 66.5814 89.9916 66.7432C80.7196 66.905 73.3362 74.6586 73.5003 84.0612C73.6644 93.4639 81.3139 100.955 90.586 100.793Z" fill="url(#paint18_radial_15_320)"/>
<path style="mix-blend-mode:color-dodge" d="M101.836 33.849C107.81 33.7447 112.567 28.7504 112.461 22.6938C112.355 16.6373 107.427 11.812 101.454 11.9163C95.4801 12.0206 90.7234 17.0149 90.8291 23.0714C90.9348 29.128 95.8629 33.9532 101.836 33.849Z" fill="url(#paint19_radial_15_320)"/>
<path style="mix-blend-mode:color-dodge" d="M85.427 44.9138C89.5604 44.8416 92.8519 41.3842 92.7787 37.1914C92.7055 32.9986 89.2954 29.6582 85.162 29.7303C81.0285 29.8025 77.7371 33.2599 77.8102 37.4527C77.8834 41.6455 81.2936 44.9859 85.427 44.9138Z" fill="url(#paint20_radial_15_320)"/>
<path style="mix-blend-mode:color-dodge" d="M44.3605 92.8719C54.8536 92.6887 63.2094 83.9145 63.0236 73.2742C62.8379 62.6339 54.181 54.1567 43.6879 54.3399C33.1948 54.523 24.839 63.2972 25.0248 73.9375C25.2105 84.5778 33.8674 93.055 44.3605 92.8719Z" fill="url(#paint21_radial_15_320)"/>
<path style="mix-blend-mode:color-dodge" d="M83.3769 153.247C100.328 152.951 113.826 138.777 113.526 121.589C113.226 104.4 99.2415 90.7061 82.2904 91.002C65.3393 91.2979 51.8409 105.472 52.1409 122.66C52.4409 139.849 66.4257 153.543 83.3769 153.247Z" fill="url(#paint22_radial_15_320)"/>
<defs>
<linearGradient id="paint0_linear_15_320" x1="81.731" y1="194.409" x2="333.862" y2="190.008" gradientUnits="userSpaceOnUse">
<stop stop-color="#57C3F9" stop-opacity="0.2"/>
<stop offset="0.07" stop-color="#57C3F9" stop-opacity="0.28"/>
<stop offset="0.2" stop-color="#57C3F9" stop-opacity="0.49"/>
<stop offset="0.4" stop-color="#57C3F9" stop-opacity="0.83"/>
<stop offset="0.49" stop-color="#57C3F9"/>
<stop offset="0.76" stop-color="#57C3F9" stop-opacity="0.99"/>
<stop offset="0.82" stop-color="#57C3F9" stop-opacity="0.81"/>
<stop offset="0.87" stop-color="#57C3F9" stop-opacity="0.68"/>
<stop offset="0.92" stop-color="#57C3F9" stop-opacity="0.58"/>
<stop offset="0.96" stop-color="#57C3F9" stop-opacity="0.52"/>
<stop offset="1" stop-color="#57C3F9" stop-opacity="0.5"/>
</linearGradient>
<linearGradient id="paint1_linear_15_320" x1="105.12" y1="64.424" x2="309.428" y2="261.747" gradientUnits="userSpaceOnUse">
<stop stop-color="#57C3F9" stop-opacity="0.5"/>
<stop offset="0.03" stop-color="#57C3F9" stop-opacity="0.58"/>
<stop offset="0.08" stop-color="#57C3F9" stop-opacity="0.79"/>
<stop offset="0.14" stop-color="#57C3F9"/>
<stop offset="0.42" stop-color="#57C3F9"/>
<stop offset="0.5" stop-color="#57C3F9" stop-opacity="0.73"/>
<stop offset="0.6" stop-color="#57C3F9" stop-opacity="0.42"/>
<stop offset="0.68" stop-color="#57C3F9" stop-opacity="0.19"/>
<stop offset="0.74" stop-color="#57C3F9" stop-opacity="0.05"/>
<stop offset="0.77" stop-color="#57C3F9" stop-opacity="0"/>
<stop offset="0.83" stop-color="#57C3F9" stop-opacity="0.29"/>
<stop offset="0.91" stop-color="#57C3F9" stop-opacity="0.67"/>
<stop offset="0.97" stop-color="#57C3F9" stop-opacity="0.91"/>
<stop offset="0.99" stop-color="#57C3F9"/>
</linearGradient>
<linearGradient id="paint2_linear_15_320" x1="169.921" y1="161.716" x2="245.896" y2="235.098" gradientUnits="userSpaceOnUse">
<stop stop-color="#57C3F9" stop-opacity="0.5"/>
<stop offset="0.03" stop-color="#57C3F9" stop-opacity="0.58"/>
<stop offset="0.08" stop-color="#57C3F9" stop-opacity="0.79"/>
<stop offset="0.14" stop-color="#57C3F9"/>
<stop offset="0.42" stop-color="#57C3F9"/>
<stop offset="0.99" stop-color="#57C3F9"/>
</linearGradient>
<linearGradient id="paint3_linear_15_320" x1="178.138" y1="131.54" x2="256.647" y2="269.77" gradientUnits="userSpaceOnUse">
<stop stop-color="#57C3F9" stop-opacity="0"/>
<stop offset="0.09" stop-color="#57C3F9" stop-opacity="0.05"/>
<stop offset="0.26" stop-color="#57C3F9" stop-opacity="0.19"/>
<stop offset="0.5" stop-color="#57C3F9" stop-opacity="0.42"/>
<stop offset="0.78" stop-color="#57C3F9" stop-opacity="0.73"/>
<stop offset="1" stop-color="#57C3F9"/>
</linearGradient>
<radialGradient id="paint4_radial_15_320" cx="0" cy="0" r="1" gradientUnits="userSpaceOnUse" gradientTransform="translate(164.563 317.214) rotate(-1) scale(159.307 4.41096)">
<stop stop-color="white"/>
<stop offset="0.08" stop-color="#CDCDCD" stop-opacity="0.8"/>
<stop offset="0.17" stop-color="#9D9D9D" stop-opacity="0.62"/>
<stop offset="0.26" stop-color="#737373" stop-opacity="0.45"/>
<stop offset="0.36" stop-color="#4F4F4F" stop-opacity="0.31"/>
<stop offset="0.46" stop-color="#323232" stop-opacity="0.2"/>
<stop offset="0.57" stop-color="#1C1C1C" stop-opacity="0.11"/>
<stop offset="0.68" stop-color="#0C0C0C" stop-opacity="0.05"/>
<stop offset="0.82" stop-color="#020202" stop-opacity="0.01"/>
<stop offset="1" stop-opacity="0"/>
</radialGradient>
<radialGradient id="paint5_radial_15_320" cx="0" cy="0" r="1" gradientUnits="userSpaceOnUse" gradientTransform="translate(164.581 319.743) rotate(-1) scale(48.9588 36.4)">
<stop stop-color="white"/>
<stop offset="0.15" stop-color="#C4C4C4" stop-opacity="0.77"/>
<stop offset="0.32" stop-color="#898989" stop-opacity="0.54"/>
<stop offset="0.48" stop-color="#585858" stop-opacity="0.35"/>
<stop offset="0.64" stop-color="#323232" stop-opacity="0.2"/>
<stop offset="0.78" stop-color="#161616" stop-opacity="0.09"/>
<stop offset="0.9" stop-color="#050505" stop-opacity="0.02"/>
<stop offset="1" stop-opacity="0"/>
</radialGradient>
<radialGradient id="paint6_radial_15_320" cx="0" cy="0" r="1" gradientUnits="userSpaceOnUse" gradientTransform="translate(164.522 316.352) rotate(-1) scale(36.5496 16.1639)">
<stop stop-color="#F8F8F8" stop-opacity="0.98"/>
<stop offset="0.09" stop-color="#C5C5C5" stop-opacity="0.77"/>
<stop offset="0.17" stop-color="#969696" stop-opacity="0.59"/>
<stop offset="0.26" stop-color="#6D6D6D" stop-opacity="0.43"/>
<stop offset="0.35" stop-color="#4B4B4B" stop-opacity="0.3"/>
<stop offset="0.45" stop-color="#303030" stop-opacity="0.19"/>
<stop offset="0.55" stop-color="#1A1A1A" stop-opacity="0.1"/>
<stop offset="0.66" stop-color="#0B0B0B" stop-opacity="0.05"/>
<stop offset="0.8" stop-color="#020202" stop-opacity="0.01"/>
<stop offset="1" stop-opacity="0"/>
</radialGradient>
<radialGradient id="paint7_radial_15_320" cx="0" cy="0" r="1" gradientTransform="matrix(64.2295 -66.5021 3.00805 2.90442 172.467 326.778)" gradientUnits="userSpaceOnUse">
<stop stop-color="white"/>
<stop offset="0.08" stop-color="#CDCDCD" stop-opacity="0.8"/>
<stop offset="0.17" stop-color="#9D9D9D" stop-opacity="0.62"/>
<stop offset="0.26" stop-color="#737373" stop-opacity="0.45"/>
<stop offset="0.36" stop-color="#4F4F4F" stop-opacity="0.31"/>
<stop offset="0.46" stop-color="#323232" stop-opacity="0.2"/>
<stop offset="0.57" stop-color="#1C1C1C" stop-opacity="0.11"/>
<stop offset="0.68" stop-color="#0C0C0C" stop-opacity="0.05"/>
<stop offset="0.82" stop-color="#020202" stop-opacity="0.01"/>
<stop offset="1" stop-opacity="0"/>
</radialGradient>
<radialGradient id="paint8_radial_15_320" cx="0" cy="0" r="1" gradientTransform="matrix(19.8368 -20.5387 24.821 23.9659 169.151 318.722)" gradientUnits="userSpaceOnUse">
<stop stop-color="white"/>
<stop offset="0.15" stop-color="#C4C4C4" stop-opacity="0.77"/>
<stop offset="0.32" stop-color="#898989" stop-opacity="0.54"/>
<stop offset="0.48" stop-color="#585858" stop-opacity="0.35"/>
<stop offset="0.64" stop-color="#323232" stop-opacity="0.2"/>
<stop offset="0.78" stop-color="#161616" stop-opacity="0.09"/>
<stop offset="0.9" stop-color="#050505" stop-opacity="0.02"/>
<stop offset="1" stop-opacity="0"/>
</radialGradient>
<radialGradient id="paint9_radial_15_320" cx="0" cy="0" r="1" gradientTransform="matrix(14.8074 -15.3313 11.0209 10.6412 165.684 315.373)" gradientUnits="userSpaceOnUse">
<stop stop-color="#F8F8F8" stop-opacity="0.98"/>
<stop offset="0.09" stop-color="#C5C5C5" stop-opacity="0.77"/>
<stop offset="0.17" stop-color="#969696" stop-opacity="0.59"/>
<stop offset="0.26" stop-color="#6D6D6D" stop-opacity="0.43"/>
<stop offset="0.35" stop-color="#4B4B4B" stop-opacity="0.3"/>
<stop offset="0.45" stop-color="#303030" stop-opacity="0.19"/>
<stop offset="0.55" stop-color="#1A1A1A" stop-opacity="0.1"/>
<stop offset="0.66" stop-color="#0B0B0B" stop-opacity="0.05"/>
<stop offset="0.8" stop-color="#020202" stop-opacity="0.01"/>
<stop offset="1" stop-opacity="0"/>
</radialGradient>
<radialGradient id="paint10_radial_15_320" cx="0" cy="0" r="1" gradientTransform="matrix(93.7494 29.2492 -1.25553 4.02301 265.156 72.6532)" gradientUnits="userSpaceOnUse">
<stop stop-color="white"/>
<stop offset="0.08" stop-color="#CDCDCD" stop-opacity="0.8"/>
<stop offset="0.17" stop-color="#9D9D9D" stop-opacity="0.62"/>
<stop offset="0.26" stop-color="#737373" stop-opacity="0.45"/>
<stop offset="0.36" stop-color="#4F4F4F" stop-opacity="0.31"/>
<stop offset="0.46" stop-color="#323232" stop-opacity="0.2"/>
<stop offset="0.57" stop-color="#1C1C1C" stop-opacity="0.11"/>
<stop offset="0.68" stop-color="#0C0C0C" stop-opacity="0.05"/>
<stop offset="0.82" stop-color="#020202" stop-opacity="0.01"/>
<stop offset="1" stop-opacity="0"/>
</radialGradient>
<radialGradient id="paint11_radial_15_320" cx="0" cy="0" r="1" gradientTransform="matrix(41.2062 12.8561 -4.66106 14.9352 268.026 76.4314)" gradientUnits="userSpaceOnUse">
<stop stop-color="white"/>
<stop offset="0.15" stop-color="#C4C4C4" stop-opacity="0.77"/>
<stop offset="0.32" stop-color="#898989" stop-opacity="0.54"/>
<stop offset="0.48" stop-color="#585858" stop-opacity="0.35"/>
<stop offset="0.64" stop-color="#323232" stop-opacity="0.2"/>
<stop offset="0.78" stop-color="#161616" stop-opacity="0.09"/>
<stop offset="0.9" stop-color="#050505" stop-opacity="0.02"/>
<stop offset="1" stop-opacity="0"/>
</radialGradient>
<radialGradient id="paint12_radial_15_320" cx="0" cy="0" r="1" gradientTransform="matrix(30.762 9.59753 -2.0398 6.53601 267.001 79.7135)" gradientUnits="userSpaceOnUse">
<stop stop-color="#F8F8F8" stop-opacity="0.98"/>
<stop offset="0.09" stop-color="#C5C5C5" stop-opacity="0.77"/>
<stop offset="0.17" stop-color="#969696" stop-opacity="0.59"/>
<stop offset="0.26" stop-color="#6D6D6D" stop-opacity="0.43"/>
<stop offset="0.35" stop-color="#4B4B4B" stop-opacity="0.3"/>
<stop offset="0.45" stop-color="#303030" stop-opacity="0.19"/>
<stop offset="0.55" stop-color="#1A1A1A" stop-opacity="0.1"/>
<stop offset="0.66" stop-color="#0B0B0B" stop-opacity="0.05"/>
<stop offset="0.8" stop-color="#020202" stop-opacity="0.01"/>
<stop offset="1" stop-opacity="0"/>
</radialGradient>
<radialGradient id="paint13_radial_15_320" cx="0" cy="0" r="1" gradientTransform="matrix(-122.937 106.101 -6.09276 -7.05752 305.608 217.638)" gradientUnits="userSpaceOnUse">
<stop stop-color="white"/>
<stop offset="0.16" stop-color="#C0C0C0" stop-opacity="0.75"/>
<stop offset="0.32" stop-color="#868686" stop-opacity="0.53"/>
<stop offset="0.48" stop-color="#565656" stop-opacity="0.34"/>
<stop offset="0.63" stop-color="#303030" stop-opacity="0.19"/>
<stop offset="0.77" stop-color="#161616" stop-opacity="0.09"/>
<stop offset="0.9" stop-color="#050505" stop-opacity="0.02"/>
<stop offset="0.99" stop-opacity="0"/>
</radialGradient>
<radialGradient id="paint14_radial_15_320" cx="0" cy="0" r="1" gradientTransform="matrix(-54.8306 47.3218 -22.3292 -25.865 322.462 230.577)" gradientUnits="userSpaceOnUse">
<stop stop-color="#F8F8F8" stop-opacity="0.98"/>
<stop offset="0.09" stop-color="#C5C5C5" stop-opacity="0.77"/>
<stop offset="0.17" stop-color="#969696" stop-opacity="0.59"/>
<stop offset="0.26" stop-color="#6D6D6D" stop-opacity="0.43"/>
<stop offset="0.35" stop-color="#4B4B4B" stop-opacity="0.3"/>
<stop offset="0.44" stop-color="#303030" stop-opacity="0.19"/>
<stop offset="0.55" stop-color="#1A1A1A" stop-opacity="0.1"/>
<stop offset="0.66" stop-color="#0B0B0B" stop-opacity="0.05"/>
<stop offset="0.8" stop-color="#020202" stop-opacity="0.01"/>
<stop offset="1" stop-opacity="0"/>
</radialGradient>
<radialGradient id="paint15_radial_15_320" cx="0" cy="0" r="1" gradientTransform="matrix(-94.6804 81.7143 -18.4254 -21.343 308.221 218.432)" gradientUnits="userSpaceOnUse">
<stop stop-color="#F8F8F8" stop-opacity="0.98"/>
<stop offset="0.09" stop-color="#C5C5C5" stop-opacity="0.77"/>
<stop offset="0.17" stop-color="#969696" stop-opacity="0.59"/>
<stop offset="0.26" stop-color="#6D6D6D" stop-opacity="0.43"/>
<stop offset="0.35" stop-color="#4B4B4B" stop-opacity="0.3"/>
<stop offset="0.44" stop-color="#303030" stop-opacity="0.19"/>
<stop offset="0.55" stop-color="#1A1A1A" stop-opacity="0.1"/>
<stop offset="0.66" stop-color="#0B0B0B" stop-opacity="0.05"/>
<stop offset="0.8" stop-color="#020202" stop-opacity="0.01"/>
<stop offset="1" stop-opacity="0"/>
</radialGradient>
<radialGradient id="paint16_radial_15_320" cx="0" cy="0" r="1" gradientUnits="userSpaceOnUse" gradientTransform="translate(118.64 67.767) rotate(-1) scale(38.1598 38.4861)">
<stop stop-color="white"/>
<stop offset="0.15" stop-color="#C4C4C4" stop-opacity="0.77"/>
<stop offset="0.32" stop-color="#898989" stop-opacity="0.54"/>
<stop offset="0.48" stop-color="#585858" stop-opacity="0.35"/>
<stop offset="0.64" stop-color="#323232" stop-opacity="0.2"/>
<stop offset="0.78" stop-color="#161616" stop-opacity="0.09"/>
<stop offset="0.9" stop-color="#050505" stop-opacity="0.02"/>
<stop offset="1" stop-opacity="0"/>
</radialGradient>
<radialGradient id="paint17_radial_15_320" cx="0" cy="0" r="1" gradientUnits="userSpaceOnUse" gradientTransform="translate(41.4845 22.8353) rotate(-1) scale(11.6458 11.7454)">
<stop stop-color="white"/>
<stop offset="0.15" stop-color="#C4C4C4" stop-opacity="0.77"/>
<stop offset="0.32" stop-color="#898989" stop-opacity="0.54"/>
<stop offset="0.48" stop-color="#585858" stop-opacity="0.35"/>
<stop offset="0.64" stop-color="#323232" stop-opacity="0.2"/>
<stop offset="0.78" stop-color="#161616" stop-opacity="0.09"/>
<stop offset="0.9" stop-color="#050505" stop-opacity="0.02"/>
<stop offset="1" stop-opacity="0"/>
</radialGradient>
<radialGradient id="paint18_radial_15_320" cx="0" cy="0" r="1" gradientUnits="userSpaceOnUse" gradientTransform="translate(91.9246 87.696) rotate(-1) scale(16.8417 16.9857)">
<stop stop-color="white"/>
<stop offset="0.15" stop-color="#C4C4C4" stop-opacity="0.77"/>
<stop offset="0.32" stop-color="#898989" stop-opacity="0.54"/>
<stop offset="0.48" stop-color="#585858" stop-opacity="0.35"/>
<stop offset="0.64" stop-color="#323232" stop-opacity="0.2"/>
<stop offset="0.78" stop-color="#161616" stop-opacity="0.09"/>
<stop offset="0.9" stop-color="#050505" stop-opacity="0.02"/>
<stop offset="1" stop-opacity="0"/>
</radialGradient>
<radialGradient id="paint19_radial_15_320" cx="0" cy="0" r="1" gradientUnits="userSpaceOnUse" gradientTransform="translate(103.322 26.9571) rotate(-1) scale(10.8514 10.9442)">
<stop stop-color="white"/>
<stop offset="0.15" stop-color="#C4C4C4" stop-opacity="0.77"/>
<stop offset="0.32" stop-color="#898989" stop-opacity="0.54"/>
<stop offset="0.48" stop-color="#585858" stop-opacity="0.35"/>
<stop offset="0.64" stop-color="#323232" stop-opacity="0.2"/>
<stop offset="0.78" stop-color="#161616" stop-opacity="0.09"/>
<stop offset="0.9" stop-color="#050505" stop-opacity="0.02"/>
<stop offset="1" stop-opacity="0"/>
</radialGradient>
<radialGradient id="paint20_radial_15_320" cx="0" cy="0" r="1" gradientUnits="userSpaceOnUse" gradientTransform="translate(86.9242 41.3589) rotate(-1) scale(7.50904 7.57326)">
<stop stop-color="white"/>
<stop offset="0.15" stop-color="#C4C4C4" stop-opacity="0.77"/>
<stop offset="0.32" stop-color="#898989" stop-opacity="0.54"/>
<stop offset="0.48" stop-color="#585858" stop-opacity="0.35"/>
<stop offset="0.64" stop-color="#323232" stop-opacity="0.2"/>
<stop offset="0.78" stop-color="#161616" stop-opacity="0.09"/>
<stop offset="0.9" stop-color="#050505" stop-opacity="0.02"/>
<stop offset="1" stop-opacity="0"/>
</radialGradient>
<radialGradient id="paint21_radial_15_320" cx="0" cy="0" r="1" gradientUnits="userSpaceOnUse" gradientTransform="translate(45.523 77.5599) rotate(-1) scale(19.0599 19.2229)">
<stop stop-color="white"/>
<stop offset="0.15" stop-color="#C4C4C4" stop-opacity="0.77"/>
<stop offset="0.32" stop-color="#898989" stop-opacity="0.54"/>
<stop offset="0.48" stop-color="#585858" stop-opacity="0.35"/>
<stop offset="0.64" stop-color="#323232" stop-opacity="0.2"/>
<stop offset="0.78" stop-color="#161616" stop-opacity="0.09"/>
<stop offset="0.9" stop-color="#050505" stop-opacity="0.02"/>
<stop offset="1" stop-opacity="0"/>
</radialGradient>
<radialGradient id="paint22_radial_15_320" cx="0" cy="0" r="1" gradientUnits="userSpaceOnUse" gradientTransform="translate(84.4483 125.96) rotate(-1) scale(30.7906 31.0539)">
<stop stop-color="white"/>
<stop offset="0.15" stop-color="#C4C4C4" stop-opacity="0.77"/>
<stop offset="0.32" stop-color="#898989" stop-opacity="0.54"/>
<stop offset="0.48" stop-color="#585858" stop-opacity="0.35"/>
<stop offset="0.64" stop-color="#323232" stop-opacity="0.2"/>
<stop offset="0.78" stop-color="#161616" stop-opacity="0.09"/>
<stop offset="0.9" stop-color="#050505" stop-opacity="0.02"/>
<stop offset="1" stop-opacity="0"/>
</radialGradient>
</defs>
</svg>
